<svg xmlns="http://www.w3.org/2000/svg" width="186" height="42" viewBox="0 0 186 42">
  <defs>
    <linearGradient id="bg" x1="0" y1="0" x2="1" y2="1">
      <stop offset="0" stop-color="#182132"/>
      <stop offset="1" stop-color="#101827"/>
    </linearGradient>
    <filter id="shadow" x="-10%" y="-30%" width="120%" height="170%">
      <feDropShadow dx="0" dy="2" stdDeviation="2" flood-color="#000000" flood-opacity=".28"/>
    </filter>
  </defs>
  <g filter="url(#shadow)">
    <rect x="1" y="1" width="184" height="40" rx="11" fill="url(#bg)" stroke="#2A3548" stroke-width="1"/>
    <g transform="translate(8 11)">
      <path d="M6 4.5h4.2c1.4 0 2.5 1.1 2.5 2.5v9c-.7-.8-1.6-1.2-2.7-1.2H6z" stroke="#9B7CFF" stroke-width="1.8" stroke-linecap="round" stroke-linejoin="round" fill="none"/><path d="M6 4.5h-.5A1.5 1.5 0 0 0 4 6v10h6c1.5 0 2.7.7 2.7 1.7" stroke="#9B7CFF" stroke-width="1.8" stroke-linecap="round" stroke-linejoin="round" fill="none"/>
    </g>
    <text x="45" y="25.5" font-family="Inter, -apple-system, BlinkMacSystemFont, 'Segoe UI', sans-serif"
          font-size="9.5" font-weight="700" letter-spacing="1.1" fill="#9B7CFF">ABRIR GUÍA</text>
    <circle cx="168" cy="21" r="10" fill="#202C40"/>
    <path d="m165.5 17.2 4 3.8-4 3.8" fill="none" stroke="#9B7CFF" stroke-width="1.7" stroke-linecap="round" stroke-linejoin="round"/>
  </g>
</svg>
