<svg xmlns="http://www.w3.org/2000/svg" width="240" height="52" viewBox="0 0 240 52" role="img" aria-label="JUGAR">
  <rect x="1" y="1" width="238" height="50" rx="13" fill="#ECFBF2" stroke="#C8F2D8" stroke-width="1.5"/>
  <circle cx="31" cy="26" r="17" fill="#149447" opacity="0.10"/>
  <g fill="none" stroke="#149447" stroke-width="2.2" stroke-linecap="round" stroke-linejoin="round">
    <path d="M19 20h18c2.8 0 5 2.2 5 5v2.5c0 3-3.7 4.3-5.5 1.9l-2.8-3.2H22.3l-2.8 3.2C17.1 31.8 13.4 30.5 13.4 27.5V25c0-2.8 2.2-5 5-5zM22 23v6M19 26h6M32 24h.1M36 27h.1"/>
  </g>
  <text x="58" y="31" fill="#149447" font-family="Inter, -apple-system, BlinkMacSystemFont, 'Segoe UI', Arial, sans-serif"
        font-size="13" font-weight="700" letter-spacing=".4">JUGAR</text>
  <circle cx="211" cy="26" r="15" fill="#149447" opacity="0.08"/>
  <path d="M207 20l6 6-6 6" fill="none" stroke="#149447" stroke-width="2.2" stroke-linecap="round" stroke-linejoin="round"/>
</svg>
