<svg xmlns="http://www.w3.org/2000/svg" width="240" height="52" viewBox="0 0 240 52">
<defs><linearGradient id="bg" x1="0" y1="0" x2="1" y2="1"><stop offset="0" stop-color="#192334"/><stop offset="1" stop-color="#111A29"/></linearGradient></defs>
<rect x="1" y="1" width="238" height="50" rx="13" fill="url(#bg)" stroke="#344157" stroke-width="1.5"/>
<g transform="translate(30 14) scale(.75 .8125)">
<path d="M13 3H4.5A2.5 2.5 0 0 0 2 5.5v14A2.5 2.5 0 0 0 4.5 22h14a2.5 2.5 0 0 0 2.5-2.5V11" stroke="#8D7BFF" stroke-width="2.6" stroke-linecap="round" stroke-linejoin="round" fill="none"/>
<path d="M12 2h9v9M21 2 10 13" stroke="#8D7BFF" stroke-width="2.6" stroke-linecap="round" stroke-linejoin="round" fill="none"/>
</g>
<text x="68" y="30" font-family="Inter,-apple-system,BlinkMacSystemFont,'Segoe UI',sans-serif" font-size="13" font-weight="700" letter-spacing="1" fill="#8D7BFF">VISITAR</text>
<circle cx="210" cy="26" r="14" fill="#243149"/>
<path d="M207 22.5l5 5-5 5" fill="none" stroke="#8D7BFF" stroke-width="2.1" stroke-linecap="round" stroke-linejoin="round"/>
</svg>